<svg xmlns="http://www.w3.org/2000/svg" xmlns:xlink="http://www.w3.org/1999/xlink" contentStyleType="text/css" data-diagram-type="ACTIVITY" height="1723px" preserveAspectRatio="none" style="width:2034px;height:1723px;background:#FFFFFF;" version="1.1" viewBox="0 0 2034 1723" width="2034px" zoomAndPan="magnify"><defs/><g><rect fill="none" height="20.9531" style="stroke:none;stroke-width:1;" width="2001.7417" x="15" y="12.7451"/><ellipse cx="156.9648" cy="48.6982" fill="#222222" rx="10" ry="10" style="stroke:#222222;stroke-width:1;"/><rect fill="#F1F1F1" height="33.9688" rx="12.5" ry="12.5" style="stroke:#181818;stroke-width:0.5;" width="216.7227" x="48.6035" y="78.6982"/><text fill="#000000" font-family="sans-serif" font-size="12" lengthAdjust="spacing" textLength="196.7227" x="58.6035" y="99.8369">&#1055;&#1086;&#1083;&#1091;&#1095;&#1077;&#1085;&#1080;&#1077; &#1079;&#1072;&#1082;&#1072;&#1079;&#1086;&#1074; &#1086;&#1090; &#1076;&#1080;&#1083;&#1077;&#1088;&#1086;&#1074;</text><rect fill="#F1F1F1" height="33.9688" rx="12.5" ry="12.5" style="stroke:#181818;stroke-width:0.5;" width="271.9297" x="21" y="132.667"/><text fill="#000000" font-family="sans-serif" font-size="12" lengthAdjust="spacing" textLength="251.9297" x="31" y="153.8057">&#1057;&#1086;&#1089;&#1090;&#1072;&#1074;&#1083;&#1077;&#1085;&#1080;&#1077; &#1087;&#1088;&#1086;&#1080;&#1079;&#1074;&#1086;&#1076;&#1089;&#1090;&#1074;&#1077;&#1085;&#1085;&#1086;&#1075;&#1086; &#1087;&#1083;&#1072;&#1085;&#1072;</text><line style="stroke:#000000;stroke-width:1.5;" x1="15" x2="15" y1="12.7451" y2="1711.9795"/><ellipse cx="425.2305" cy="196.6357" fill="#222222" rx="10" ry="10" style="stroke:#222222;stroke-width:1;"/><rect fill="#F1F1F1" height="33.9688" rx="12.5" ry="12.5" style="stroke:#181818;stroke-width:0.5;" width="111.6523" x="369.4043" y="226.6357"/><text fill="#000000" font-family="sans-serif" font-size="12" lengthAdjust="spacing" textLength="91.6523" x="379.4043" y="247.7744">&#1057;&#1073;&#1086;&#1088;&#1082;&#1072; &#1082;&#1091;&#1079;&#1086;&#1074;&#1072;</text><rect fill="#F1F1F1" height="33.9688" rx="12.5" ry="12.5" style="stroke:#181818;stroke-width:0.5;" width="126.0957" x="362.1826" y="280.6045"/><text fill="#000000" font-family="sans-serif" font-size="12" lengthAdjust="spacing" textLength="106.0957" x="372.1826" y="301.7432">&#1055;&#1086;&#1082;&#1088;&#1072;&#1089;&#1082;&#1072; &#1082;&#1091;&#1079;&#1086;&#1074;&#1072;</text><rect fill="#F1F1F1" height="33.9688" rx="12.5" ry="12.5" style="stroke:#181818;stroke-width:0.5;" width="244.6016" x="302.9297" y="334.5732"/><text fill="#000000" font-family="sans-serif" font-size="12" lengthAdjust="spacing" textLength="224.6016" x="312.9297" y="355.7119">&#1057;&#1073;&#1086;&#1088;&#1082;&#1072; &#1086;&#1089;&#1090;&#1072;&#1083;&#1100;&#1085;&#1099;&#1093; &#1082;&#1086;&#1084;&#1087;&#1083;&#1077;&#1082;&#1090;&#1091;&#1102;&#1097;&#1080;&#1093;</text><line style="stroke:#000000;stroke-width:1.5;" x1="296.9297" x2="296.9297" y1="12.7451" y2="1711.9795"/><ellipse cx="813.6748" cy="398.542" fill="#222222" rx="10" ry="10" style="stroke:#222222;stroke-width:1;"/><rect fill="#F1F1F1" height="33.9688" rx="12.5" ry="12.5" style="stroke:#181818;stroke-width:0.5;" width="253.1797" x="687.085" y="428.542"/><text fill="#000000" font-family="sans-serif" font-size="12" lengthAdjust="spacing" textLength="233.1797" x="697.085" y="449.6807">&#1055;&#1088;&#1086;&#1093;&#1086;&#1078;&#1076;&#1077;&#1085;&#1080;&#1077; &#1089;&#1090;&#1077;&#1085;&#1076;&#1086;&#1074;&#1099;&#1093; &#1080;&#1089;&#1087;&#1099;&#1090;&#1072;&#1085;&#1080;&#1081;</text><rect fill="#F1F1F1" height="33.9688" rx="12.5" ry="12.5" style="stroke:#181818;stroke-width:0.5;" width="238.8066" x="694.2715" y="482.5107"/><text fill="#000000" font-family="sans-serif" font-size="12" lengthAdjust="spacing" textLength="218.8066" x="704.2715" y="503.6494">&#1055;&#1088;&#1086;&#1093;&#1086;&#1078;&#1076;&#1077;&#1085;&#1080;&#1077; &#1093;&#1086;&#1076;&#1086;&#1074;&#1099;&#1093; &#1080;&#1089;&#1087;&#1099;&#1090;&#1072;&#1085;&#1080;&#1081;</text><line style="stroke:#181818;stroke-width:1.5;" x1="670.3809" x2="940.5244" y1="536.4795" y2="536.4795"/><rect fill="#F1F1F1" height="33.9688" rx="12.5" ry="12.5" style="stroke:#181818;stroke-width:0.5;" width="166.7129" x="587.0244" y="556.4795"/><text fill="#000000" font-family="sans-serif" font-size="12" lengthAdjust="spacing" textLength="146.7129" x="597.0244" y="577.6182">&#1054;&#1073;&#1085;&#1072;&#1088;&#1091;&#1078;&#1077;&#1085;&#1080;&#1077; &#1076;&#1077;&#1092;&#1077;&#1082;&#1090;&#1072;</text><rect fill="#F1F1F1" height="33.9688" rx="12.5" ry="12.5" style="stroke:#181818;stroke-width:0.5;" width="225.6992" x="557.5313" y="610.4482"/><text fill="#000000" font-family="sans-serif" font-size="12" lengthAdjust="spacing" textLength="205.6992" x="567.5313" y="631.5869">&#1056;&#1077;&#1075;&#1080;&#1089;&#1090;&#1088;&#1072;&#1094;&#1080;&#1103; &#1076;&#1077;&#1092;&#1077;&#1082;&#1090;&#1072; &#1074; &#1089;&#1080;&#1089;&#1090;&#1077;&#1084;&#1077;</text><rect fill="#F1F1F1" height="33.9688" rx="12.5" ry="12.5" style="stroke:#181818;stroke-width:0.5;" width="220.9121" x="559.9248" y="664.417"/><text fill="#000000" font-family="sans-serif" font-size="12" lengthAdjust="spacing" textLength="200.9121" x="569.9248" y="685.5557">&#1054;&#1090;&#1087;&#1088;&#1072;&#1074;&#1082;&#1072; &#1072;&#1074;&#1090;&#1086;&#1084;&#1086;&#1073;&#1080;&#1083;&#1103; &#1074; &#1088;&#1077;&#1084;&#1086;&#1085;&#1090;</text><rect fill="#F1F1F1" height="33.9688" rx="12.5" ry="12.5" style="stroke:#181818;stroke-width:0.5;" width="155.9082" x="592.4268" y="718.3857"/><text fill="#000000" font-family="sans-serif" font-size="12" lengthAdjust="spacing" textLength="135.9082" x="602.4268" y="739.5244">&#1047;&#1072;&#1074;&#1077;&#1088;&#1096;&#1077;&#1085;&#1080;&#1077; &#1088;&#1077;&#1084;&#1086;&#1085;&#1090;&#1072;</text><rect fill="#F1F1F1" height="33.9688" rx="12.5" ry="12.5" style="stroke:#181818;stroke-width:0.5;" width="151.6953" x="864.6768" y="610.4482"/><text fill="#000000" font-family="sans-serif" font-size="12" lengthAdjust="spacing" textLength="131.6953" x="874.6768" y="631.5869">&#1054;&#1090;&#1089;&#1091;&#1090;&#1089;&#1090;&#1074;&#1080;&#1077; &#1076;&#1077;&#1092;&#1077;&#1082;&#1090;&#1072;</text><rect fill="#F1F1F1" height="33.9688" rx="12.5" ry="12.5" style="stroke:#181818;stroke-width:0.5;" width="258.5879" x="811.2305" y="664.417"/><text fill="#000000" font-family="sans-serif" font-size="12" lengthAdjust="spacing" textLength="238.5879" x="821.2305" y="685.5557">&#1055;&#1088;&#1086;&#1093;&#1086;&#1078;&#1076;&#1077;&#1085;&#1080;&#1077; &#1082;&#1086;&#1085;&#1090;&#1088;&#1086;&#1083;&#1100;&#1085;&#1099;&#1093; &#1087;&#1088;&#1086;&#1074;&#1077;&#1088;&#1086;&#1082;</text><line style="stroke:#181818;stroke-width:1.5;" x1="670.3809" x2="940.5244" y1="772.3545" y2="772.3545"/><ellipse cx="813.6748" cy="1290.1357" fill="#222222" rx="10" ry="10" style="stroke:#222222;stroke-width:1;"/><rect fill="#F1F1F1" height="33.9688" rx="12.5" ry="12.5" style="stroke:#181818;stroke-width:0.5;" width="326.5859" x="650.3818" y="1320.1357"/><text fill="#000000" font-family="sans-serif" font-size="12" lengthAdjust="spacing" textLength="306.5859" x="660.3818" y="1341.2744">&#1047;&#1072;&#1074;&#1077;&#1088;&#1096;&#1077;&#1085;&#1080;&#1077; &#1090;&#1077;&#1089;&#1090;&#1080;&#1088;&#1086;&#1074;&#1072;&#1085;&#1080;&#1103; &#1080; &#1087;&#1088;&#1086;&#1074;&#1077;&#1088;&#1082;&#1080; &#1082;&#1072;&#1095;&#1077;&#1089;&#1090;&#1074;&#1072;</text><ellipse cx="813.6748" cy="1384.1045" fill="none" rx="10" ry="10" style="stroke:#222222;stroke-width:1.5;"/><line style="stroke:#222222;stroke-width:2.5;" x1="807.4876" x2="819.862" y1="1377.9173" y2="1390.2917"/><line style="stroke:#222222;stroke-width:2.5;" x1="819.862" x2="807.4876" y1="1377.9173" y2="1390.2917"/><rect fill="#F1F1F1" height="33.9688" rx="12.5" ry="12.5" style="stroke:#181818;stroke-width:0.5;" width="225.2656" x="701.042" y="1404.1045"/><text fill="#000000" font-family="sans-serif" font-size="12" lengthAdjust="spacing" textLength="205.2656" x="711.042" y="1425.2432">&#1054;&#1090;&#1075;&#1088;&#1091;&#1079;&#1082;&#1072; &#1072;&#1074;&#1090;&#1086;&#1084;&#1086;&#1073;&#1080;&#1083;&#1103; &#1079;&#1072;&#1082;&#1072;&#1079;&#1095;&#1080;&#1082;&#1091;</text><line style="stroke:#000000;stroke-width:1.5;" x1="551.5313" x2="551.5313" y1="12.7451" y2="1711.9795"/><ellipse cx="1184.9805" cy="802.3545" fill="#222222" rx="10" ry="10" style="stroke:#222222;stroke-width:1;"/><rect fill="#F1F1F1" height="33.9688" rx="12.5" ry="12.5" style="stroke:#181818;stroke-width:0.5;" width="160.7363" x="1104.6123" y="832.3545"/><text fill="#000000" font-family="sans-serif" font-size="12" lengthAdjust="spacing" textLength="140.7363" x="1114.6123" y="853.4932">&#1044;&#1080;&#1072;&#1075;&#1085;&#1086;&#1089;&#1090;&#1080;&#1082;&#1072; &#1076;&#1077;&#1092;&#1077;&#1082;&#1090;&#1072;</text><rect fill="#F1F1F1" height="33.9688" rx="12.5" ry="12.5" style="stroke:#181818;stroke-width:0.5;" width="210.3242" x="1079.8184" y="886.3232"/><text fill="#000000" font-family="sans-serif" font-size="12" lengthAdjust="spacing" textLength="190.3242" x="1089.8184" y="907.4619">&#1053;&#1072;&#1079;&#1085;&#1072;&#1095;&#1077;&#1085;&#1080;&#1077; &#1088;&#1077;&#1084;&#1086;&#1085;&#1090;&#1072; &#1088;&#1072;&#1073;&#1086;&#1095;&#1080;&#1084;</text><rect fill="#F1F1F1" height="33.9688" rx="12.5" ry="12.5" style="stroke:#181818;stroke-width:0.5;" width="156.2188" x="1106.8711" y="940.292"/><text fill="#000000" font-family="sans-serif" font-size="12" lengthAdjust="spacing" textLength="136.2188" x="1116.8711" y="961.4307">&#1042;&#1099;&#1087;&#1086;&#1083;&#1085;&#1077;&#1085;&#1080;&#1077; &#1088;&#1077;&#1084;&#1086;&#1085;&#1090;&#1072;</text><line style="stroke:#000000;stroke-width:1.5;" x1="1073.8184" x2="1073.8184" y1="12.7451" y2="1711.9795"/><ellipse cx="1490.4326" cy="1004.2607" fill="#222222" rx="10" ry="10" style="stroke:#222222;stroke-width:1;"/><rect fill="#F1F1F1" height="33.9688" rx="12.5" ry="12.5" style="stroke:#181818;stroke-width:0.5;" width="299.7441" x="1340.5605" y="1034.2607"/><text fill="#000000" font-family="sans-serif" font-size="12" lengthAdjust="spacing" textLength="279.7441" x="1350.5605" y="1055.3994">&#1060;&#1080;&#1082;&#1089;&#1072;&#1094;&#1080;&#1103; &#1074;&#1088;&#1077;&#1084;&#1077;&#1085;&#1080; &#1085;&#1072;&#1095;&#1072;&#1083;&#1072; &#1080; &#1082;&#1086;&#1085;&#1094;&#1072; &#1088;&#1077;&#1084;&#1086;&#1085;&#1090;&#1072;</text><rect fill="#F1F1F1" height="33.9688" rx="12.5" ry="12.5" style="stroke:#181818;stroke-width:0.5;" width="193.2148" x="1393.8252" y="1088.2295"/><text fill="#000000" font-family="sans-serif" font-size="12" lengthAdjust="spacing" textLength="173.2148" x="1403.8252" y="1109.3682">&#1053;&#1072;&#1079;&#1085;&#1072;&#1095;&#1077;&#1085;&#1080;&#1077; &#1088;&#1072;&#1073;&#1086;&#1095;&#1080;&#1084; &#1079;&#1072;&#1076;&#1072;&#1095;</text><rect fill="#F1F1F1" height="33.9688" rx="12.5" ry="12.5" style="stroke:#181818;stroke-width:0.5;" width="341.1465" x="1319.8594" y="1142.1982"/><text fill="#000000" font-family="sans-serif" font-size="12" lengthAdjust="spacing" textLength="321.1465" x="1329.8594" y="1163.3369">&#1060;&#1080;&#1082;&#1089;&#1072;&#1094;&#1080;&#1103; &#1080;&#1085;&#1092;&#1086;&#1088;&#1084;&#1072;&#1094;&#1080;&#1080; &#1087;&#1086; &#1074;&#1099;&#1087;&#1086;&#1083;&#1085;&#1077;&#1085;&#1085;&#1086;&#1084;&#1091; &#1088;&#1077;&#1084;&#1086;&#1085;&#1090;&#1091;</text><rect fill="#F1F1F1" height="33.9688" rx="12.5" ry="12.5" style="stroke:#181818;stroke-width:0.5;" width="380.5801" x="1300.1426" y="1196.167"/><text fill="#000000" font-family="sans-serif" font-size="12" lengthAdjust="spacing" textLength="360.5801" x="1310.1426" y="1217.3057">&#1054;&#1090;&#1087;&#1088;&#1072;&#1074;&#1082;&#1072; &#1072;&#1074;&#1090;&#1086;&#1084;&#1086;&#1073;&#1080;&#1083;&#1103; &#1085;&#1072; &#1090;&#1077;&#1089;&#1090;&#1080;&#1088;&#1086;&#1074;&#1072;&#1085;&#1080;&#1077; &#1080;&#1083;&#1080; &#1085;&#1072; &#1082;&#1086;&#1085;&#1074;&#1077;&#1081;&#1077;&#1088;</text><ellipse cx="1490.4326" cy="1260.1357" fill="none" rx="10" ry="10" style="stroke:#222222;stroke-width:1.5;"/><line style="stroke:#222222;stroke-width:2.5;" x1="1484.2454" x2="1496.6198" y1="1253.9486" y2="1266.3229"/><line style="stroke:#222222;stroke-width:2.5;" x1="1496.6198" x2="1484.2454" y1="1253.9486" y2="1266.3229"/><line style="stroke:#000000;stroke-width:1.5;" x1="1294.1426" x2="1294.1426" y1="12.7451" y2="1711.9795"/><ellipse cx="1850.8018" cy="1468.0732" fill="#222222" rx="10" ry="10" style="stroke:#222222;stroke-width:1;"/><rect fill="#F1F1F1" height="33.9688" rx="12.5" ry="12.5" style="stroke:#181818;stroke-width:0.5;" width="211.748" x="1744.9277" y="1498.0732"/><text fill="#000000" font-family="sans-serif" font-size="12" lengthAdjust="spacing" textLength="191.748" x="1754.9277" y="1519.2119">&#1055;&#1086;&#1083;&#1091;&#1095;&#1077;&#1085;&#1080;&#1077; &#1086;&#1090;&#1095;&#1077;&#1090;&#1072; &#1087;&#1086; &#1088;&#1077;&#1084;&#1086;&#1085;&#1090;&#1091;</text><rect fill="#F1F1F1" height="33.9688" rx="12.5" ry="12.5" style="stroke:#181818;stroke-width:0.5;" width="320.1582" x="1690.7227" y="1552.042"/><text fill="#000000" font-family="sans-serif" font-size="12" lengthAdjust="spacing" textLength="300.1582" x="1700.7227" y="1573.1807">&#1055;&#1086;&#1083;&#1091;&#1095;&#1077;&#1085;&#1080;&#1077; &#1089;&#1090;&#1072;&#1090;&#1080;&#1089;&#1090;&#1080;&#1082;&#1080; &#1087;&#1086; &#1076;&#1077;&#1092;&#1077;&#1082;&#1090;&#1072;&#1084; &#1080; &#1088;&#1077;&#1084;&#1086;&#1085;&#1090;&#1091;</text><rect fill="#F1F1F1" height="33.9688" rx="12.5" ry="12.5" style="stroke:#181818;stroke-width:0.5;" width="212.0703" x="1744.7666" y="1606.0107"/><text fill="#000000" font-family="sans-serif" font-size="12" lengthAdjust="spacing" textLength="192.0703" x="1754.7666" y="1627.1494">&#1055;&#1086;&#1083;&#1091;&#1095;&#1077;&#1085;&#1080;&#1077; &#1086;&#1090;&#1095;&#1077;&#1090;&#1072; &#1087;&#1086; &#1088;&#1072;&#1073;&#1086;&#1095;&#1080;&#1084;</text><ellipse cx="1850.8018" cy="1669.9795" fill="none" rx="10" ry="10" style="stroke:#222222;stroke-width:1.5;"/><line style="stroke:#222222;stroke-width:2.5;" x1="1844.6146" x2="1856.9889" y1="1663.7923" y2="1676.1667"/><line style="stroke:#222222;stroke-width:2.5;" x1="1856.9889" x2="1844.6146" y1="1663.7923" y2="1676.1667"/><ellipse cx="1850.8018" cy="1700.9795" fill="none" rx="11" ry="11" style="stroke:#222222;stroke-width:1;"/><ellipse cx="1850.8018" cy="1700.9795" fill="#222222" rx="6" ry="6" style="stroke:#222222;stroke-width:1;"/><line style="stroke:#000000;stroke-width:1.5;" x1="1684.7227" x2="1684.7227" y1="12.7451" y2="1711.9795"/><line style="stroke:#000000;stroke-width:1.5;" x1="2014.8809" x2="2014.8809" y1="12.7451" y2="1711.9795"/><line style="stroke:#181818;stroke-width:1;" x1="156.9648" x2="156.9648" y1="58.6982" y2="78.6982"/><polygon fill="#181818" points="152.9648,68.6982,156.9648,78.6982,160.9648,68.6982,156.9648,72.6982" style="stroke:#181818;stroke-width:1;"/><line style="stroke:#181818;stroke-width:1;" x1="156.9648" x2="156.9648" y1="112.667" y2="132.667"/><polygon fill="#181818" points="152.9648,122.667,156.9648,132.667,160.9648,122.667,156.9648,126.667" style="stroke:#181818;stroke-width:1;"/><line style="stroke:#181818;stroke-width:1;" x1="425.2305" x2="425.2305" y1="206.6357" y2="226.6357"/><polygon fill="#181818" points="421.2305,216.6357,425.2305,226.6357,429.2305,216.6357,425.2305,220.6357" style="stroke:#181818;stroke-width:1;"/><line style="stroke:#181818;stroke-width:1;" x1="425.2305" x2="425.2305" y1="260.6045" y2="280.6045"/><polygon fill="#181818" points="421.2305,270.6045,425.2305,280.6045,429.2305,270.6045,425.2305,274.6045" style="stroke:#181818;stroke-width:1;"/><line style="stroke:#181818;stroke-width:1;" x1="425.2305" x2="425.2305" y1="314.5732" y2="334.5732"/><polygon fill="#181818" points="421.2305,324.5732,425.2305,334.5732,429.2305,324.5732,425.2305,328.5732" style="stroke:#181818;stroke-width:1;"/><line style="stroke:#181818;stroke-width:1;" x1="813.6748" x2="813.6748" y1="408.542" y2="428.542"/><polygon fill="#181818" points="809.6748,418.542,813.6748,428.542,817.6748,418.542,813.6748,422.542" style="stroke:#181818;stroke-width:1;"/><line style="stroke:#181818;stroke-width:1;" x1="813.6748" x2="813.6748" y1="462.5107" y2="482.5107"/><polygon fill="#181818" points="809.6748,472.5107,813.6748,482.5107,817.6748,472.5107,813.6748,476.5107" style="stroke:#181818;stroke-width:1;"/><line style="stroke:#181818;stroke-width:1;" x1="670.3809" x2="670.3809" y1="590.4482" y2="610.4482"/><polygon fill="#181818" points="666.3809,600.4482,670.3809,610.4482,674.3809,600.4482,670.3809,604.4482" style="stroke:#181818;stroke-width:1;"/><line style="stroke:#181818;stroke-width:1;" x1="670.3809" x2="670.3809" y1="644.417" y2="664.417"/><polygon fill="#181818" points="666.3809,654.417,670.3809,664.417,674.3809,654.417,670.3809,658.417" style="stroke:#181818;stroke-width:1;"/><line style="stroke:#181818;stroke-width:1;" x1="670.3809" x2="670.3809" y1="698.3857" y2="718.3857"/><polygon fill="#181818" points="666.3809,708.3857,670.3809,718.3857,674.3809,708.3857,670.3809,712.3857" style="stroke:#181818;stroke-width:1;"/><line style="stroke:#181818;stroke-width:1;" x1="940.5244" x2="940.5244" y1="644.417" y2="664.417"/><polygon fill="#181818" points="936.5244,654.417,940.5244,664.417,944.5244,654.417,940.5244,658.417" style="stroke:#181818;stroke-width:1;"/><line style="stroke:#181818;stroke-width:1;" x1="670.3809" x2="670.3809" y1="537.9795" y2="556.4795"/><polygon fill="#181818" points="666.3809,546.4795,670.3809,556.4795,674.3809,546.4795,670.3809,550.4795" style="stroke:#181818;stroke-width:1;"/><line style="stroke:#181818;stroke-width:1;" x1="940.5244" x2="940.5244" y1="537.9795" y2="610.4482"/><polygon fill="#181818" points="936.5244,600.4482,940.5244,610.4482,944.5244,600.4482,940.5244,604.4482" style="stroke:#181818;stroke-width:1;"/><line style="stroke:#181818;stroke-width:1;" x1="670.3809" x2="670.3809" y1="752.3545" y2="772.3545"/><polygon fill="#181818" points="666.3809,762.3545,670.3809,772.3545,674.3809,762.3545,670.3809,766.3545" style="stroke:#181818;stroke-width:1;"/><line style="stroke:#181818;stroke-width:1;" x1="940.5244" x2="940.5244" y1="698.3857" y2="772.3545"/><polygon fill="#181818" points="936.5244,762.3545,940.5244,772.3545,944.5244,762.3545,940.5244,766.3545" style="stroke:#181818;stroke-width:1;"/><line style="stroke:#181818;stroke-width:1;" x1="813.6748" x2="813.6748" y1="516.4795" y2="536.4795"/><polygon fill="#181818" points="809.6748,526.4795,813.6748,536.4795,817.6748,526.4795,813.6748,530.4795" style="stroke:#181818;stroke-width:1;"/><line style="stroke:#181818;stroke-width:1;" x1="813.6748" x2="813.6748" y1="1300.1357" y2="1320.1357"/><polygon fill="#181818" points="809.6748,1310.1357,813.6748,1320.1357,817.6748,1310.1357,813.6748,1314.1357" style="stroke:#181818;stroke-width:1;"/><line style="stroke:#181818;stroke-width:1;" x1="813.6748" x2="813.6748" y1="1354.1045" y2="1374.1045"/><polygon fill="#181818" points="809.6748,1364.1045,813.6748,1374.1045,817.6748,1364.1045,813.6748,1368.1045" style="stroke:#181818;stroke-width:1;"/><line style="stroke:#181818;stroke-width:1;" x1="1184.9805" x2="1184.9805" y1="812.3545" y2="832.3545"/><polygon fill="#181818" points="1180.9805,822.3545,1184.9805,832.3545,1188.9805,822.3545,1184.9805,826.3545" style="stroke:#181818;stroke-width:1;"/><line style="stroke:#181818;stroke-width:1;" x1="1184.9805" x2="1184.9805" y1="866.3232" y2="886.3232"/><polygon fill="#181818" points="1180.9805,876.3232,1184.9805,886.3232,1188.9805,876.3232,1184.9805,880.3232" style="stroke:#181818;stroke-width:1;"/><line style="stroke:#181818;stroke-width:1;" x1="1184.9805" x2="1184.9805" y1="920.292" y2="940.292"/><polygon fill="#181818" points="1180.9805,930.292,1184.9805,940.292,1188.9805,930.292,1184.9805,934.292" style="stroke:#181818;stroke-width:1;"/><line style="stroke:#181818;stroke-width:1;" x1="1490.4326" x2="1490.4326" y1="1014.2607" y2="1034.2607"/><polygon fill="#181818" points="1486.4326,1024.2607,1490.4326,1034.2607,1494.4326,1024.2607,1490.4326,1028.2607" style="stroke:#181818;stroke-width:1;"/><line style="stroke:#181818;stroke-width:1;" x1="1490.4326" x2="1490.4326" y1="1068.2295" y2="1088.2295"/><polygon fill="#181818" points="1486.4326,1078.2295,1490.4326,1088.2295,1494.4326,1078.2295,1490.4326,1082.2295" style="stroke:#181818;stroke-width:1;"/><line style="stroke:#181818;stroke-width:1;" x1="1490.4326" x2="1490.4326" y1="1122.1982" y2="1142.1982"/><polygon fill="#181818" points="1486.4326,1132.1982,1490.4326,1142.1982,1494.4326,1132.1982,1490.4326,1136.1982" style="stroke:#181818;stroke-width:1;"/><line style="stroke:#181818;stroke-width:1;" x1="1490.4326" x2="1490.4326" y1="1176.167" y2="1196.167"/><polygon fill="#181818" points="1486.4326,1186.167,1490.4326,1196.167,1494.4326,1186.167,1490.4326,1190.167" style="stroke:#181818;stroke-width:1;"/><line style="stroke:#181818;stroke-width:1;" x1="1490.4326" x2="1490.4326" y1="1230.1357" y2="1250.1357"/><polygon fill="#181818" points="1486.4326,1240.1357,1490.4326,1250.1357,1494.4326,1240.1357,1490.4326,1244.1357" style="stroke:#181818;stroke-width:1;"/><line style="stroke:#181818;stroke-width:1;" x1="1850.8018" x2="1850.8018" y1="1478.0732" y2="1498.0732"/><polygon fill="#181818" points="1846.8018,1488.0732,1850.8018,1498.0732,1854.8018,1488.0732,1850.8018,1492.0732" style="stroke:#181818;stroke-width:1;"/><line style="stroke:#181818;stroke-width:1;" x1="1850.8018" x2="1850.8018" y1="1532.042" y2="1552.042"/><polygon fill="#181818" points="1846.8018,1542.042,1850.8018,1552.042,1854.8018,1542.042,1850.8018,1546.042" style="stroke:#181818;stroke-width:1;"/><line style="stroke:#181818;stroke-width:1;" x1="1850.8018" x2="1850.8018" y1="1586.0107" y2="1606.0107"/><polygon fill="#181818" points="1846.8018,1596.0107,1850.8018,1606.0107,1854.8018,1596.0107,1850.8018,1600.0107" style="stroke:#181818;stroke-width:1;"/><line style="stroke:#181818;stroke-width:1;" x1="1850.8018" x2="1850.8018" y1="1639.9795" y2="1659.9795"/><polygon fill="#181818" points="1846.8018,1649.9795,1850.8018,1659.9795,1854.8018,1649.9795,1850.8018,1653.9795" style="stroke:#181818;stroke-width:1;"/><line style="stroke:#181818;stroke-width:1;" x1="156.9648" x2="156.9648" y1="166.6357" y2="171.6357"/><line style="stroke:#181818;stroke-width:1;" x1="156.9648" x2="425.2305" y1="171.6357" y2="171.6357"/><line style="stroke:#181818;stroke-width:1;" x1="425.2305" x2="425.2305" y1="171.6357" y2="186.6357"/><polygon fill="#181818" points="421.2305,176.6357,425.2305,186.6357,429.2305,176.6357,425.2305,180.6357" style="stroke:#181818;stroke-width:1;"/><line style="stroke:#181818;stroke-width:1;" x1="425.2305" x2="425.2305" y1="368.542" y2="373.542"/><line style="stroke:#181818;stroke-width:1;" x1="425.2305" x2="813.6748" y1="373.542" y2="373.542"/><line style="stroke:#181818;stroke-width:1;" x1="813.6748" x2="813.6748" y1="373.542" y2="388.542"/><polygon fill="#181818" points="809.6748,378.542,813.6748,388.542,817.6748,378.542,813.6748,382.542" style="stroke:#181818;stroke-width:1;"/><line style="stroke:#181818;stroke-width:1;" x1="813.6748" x2="813.6748" y1="773.8545" y2="777.3545"/><line style="stroke:#181818;stroke-width:1;" x1="813.6748" x2="1184.9805" y1="777.3545" y2="777.3545"/><line style="stroke:#181818;stroke-width:1;" x1="1184.9805" x2="1184.9805" y1="777.3545" y2="792.3545"/><polygon fill="#181818" points="1180.9805,782.3545,1184.9805,792.3545,1188.9805,782.3545,1184.9805,786.3545" style="stroke:#181818;stroke-width:1;"/><line style="stroke:#181818;stroke-width:1;" x1="1184.9805" x2="1184.9805" y1="974.2607" y2="979.2607"/><line style="stroke:#181818;stroke-width:1;" x1="1184.9805" x2="1490.4326" y1="979.2607" y2="979.2607"/><line style="stroke:#181818;stroke-width:1;" x1="1490.4326" x2="1490.4326" y1="979.2607" y2="994.2607"/><polygon fill="#181818" points="1486.4326,984.2607,1490.4326,994.2607,1494.4326,984.2607,1490.4326,988.2607" style="stroke:#181818;stroke-width:1;"/><line style="stroke:#181818;stroke-width:1;" x1="813.6748" x2="813.6748" y1="1438.0732" y2="1443.0732"/><line style="stroke:#181818;stroke-width:1;" x1="813.6748" x2="1850.8018" y1="1443.0732" y2="1443.0732"/><line style="stroke:#181818;stroke-width:1;" x1="1850.8018" x2="1850.8018" y1="1443.0732" y2="1458.0732"/><polygon fill="#181818" points="1846.8018,1448.0732,1850.8018,1458.0732,1854.8018,1448.0732,1850.8018,1452.0732" style="stroke:#181818;stroke-width:1;"/><text fill="#000000" font-family="sans-serif" font-size="18" lengthAdjust="spacing" textLength="56.6367" x="127.6465" y="29.4531">&#1047;&#1072;&#1074;&#1086;&#1076;</text><text fill="#000000" font-family="sans-serif" font-size="18" lengthAdjust="spacing" textLength="133.3125" x="357.5742" y="29.4531">&#1055;&#1088;&#1086;&#1080;&#1079;&#1074;&#1086;&#1076;&#1089;&#1090;&#1074;&#1086;</text><text fill="#000000" font-family="sans-serif" font-size="18" lengthAdjust="spacing" textLength="181.9512" x="721.6992" y="29.4531">&#1050;&#1086;&#1085;&#1090;&#1088;&#1086;&#1083;&#1100; &#1082;&#1072;&#1095;&#1077;&#1089;&#1090;&#1074;&#1072;</text><text fill="#000000" font-family="sans-serif" font-size="18" lengthAdjust="spacing" textLength="68.7744" x="1149.5933" y="29.4531">&#1056;&#1077;&#1084;&#1086;&#1085;&#1090;</text><text fill="#000000" font-family="sans-serif" font-size="18" lengthAdjust="spacing" textLength="79.4355" x="1449.7148" y="29.4531">&#1041;&#1088;&#1080;&#1075;&#1072;&#1076;&#1072;</text><text fill="#000000" font-family="sans-serif" font-size="18" lengthAdjust="spacing" textLength="119.4609" x="1790.0713" y="29.4531">&#1056;&#1091;&#1082;&#1086;&#1074;&#1086;&#1076;&#1089;&#1090;&#1074;&#1086;</text><!--SRC=[bLHjQjj04FslK-mvhDCOMagWfA7sJ_rmf3XfIMX9AHG2IHhe0RQo5MzaIRx2p8twPdOLIOuSqXyssjtvUFFUp2JqYopbrD0wYMRpwUTvDA5x7BUSyGKLL9EZmj06LYL-6ppbXXfE3QtnjAM25t8Nm-y1zwUSQi1jvxjJ2mTVpQCckJxNEA-eWGdiBOusZXAw7xLlEdmFz1UP5WB8KCcPHoNE7dk9Dykde-y3tnRkbg-evajUmXocbU8fu9g2XM_ybHml1TaD7cjSBfIWAx6smbA0Q7iKYWqlOVS8dbegr4uEQm7a4pe0tU4pLG8SFSM7tUNYTTVPoSUZUMJCXEvGA0Zb1Uf_xCH0D3xpjGaXOlaRnvK4qyeid-Fx-vwbWUh8va855HNUzmv7qLSaLqhnWIlXi040D8Y4Wkz2lPG-x-dx3jt3Nxe2UrQ2Jginqm_Je-Cs6m1a-Y-47wfed3xLjYTVAxdlppnqSXb7xu_V6KzaekG4H9swFn7FWhCwT93pjUyXcT2jJapjcsIqHgFSIKjUuBKIfnzyYVu3GZWS8YQXQrmvGB38skkxFu85GZshc0TNZMG25YlZPkJiAJdtG0Of3gBlmVLxOIqMyLXoXs1dEcwLlvIKEnduVAz8sGGLPmCKd4dGjtLOBHMaOH9T4DIsmikUyiM7YdN_F8dYglP_ZVPeuuwcLWg6_LLwqWUXFGHVwKhdTVDAfS-RM2KeXIHqAPnAJJAwC4SMEZQuOj3P5abUCl_IowzBBRDj-rRGGUzBPxWtHHp5CHW8uMOs_tJo3m00]--></g></svg>