<svg xmlns="http://www.w3.org/2000/svg" xmlns:xlink="http://www.w3.org/1999/xlink" contentStyleType="text/css" data-diagram-type="DESCRIPTION" height="437px" preserveAspectRatio="none" style="width:2420px;height:437px;background:#FFFFFF;" version="1.1" viewBox="0 0 2420 437" width="2420px" zoomAndPan="magnify"><defs/><g><!--cluster ??????? ????? ????????--><g class="cluster" data-entity="&#1057;&#1080;&#1089;&#1090;&#1077;&#1084;&#1072; &#1091;&#1095;&#1077;&#1090;&#1072; &#1076;&#1077;&#1092;&#1077;&#1082;&#1090;&#1086;&#1074;" data-source-line="10" data-uid="ent0010" id="cluster_&#1057;&#1080;&#1089;&#1090;&#1077;&#1084;&#1072; &#1091;&#1095;&#1077;&#1090;&#1072; &#1076;&#1077;&#1092;&#1077;&#1082;&#1090;&#1086;&#1074;"><rect fill="none" height="286.63" rx="2.5" ry="2.5" style="stroke:#181818;stroke-width:1;" width="2230" x="184.08" y="144.79"/><text fill="#000000" font-family="sans-serif" font-size="14" font-weight="bold" lengthAdjust="spacing" textLength="202.7061" x="1197.727" y="159.7851">&#1057;&#1080;&#1089;&#1090;&#1077;&#1084;&#1072; &#1091;&#1095;&#1077;&#1090;&#1072; &#1076;&#1077;&#1092;&#1077;&#1082;&#1090;&#1086;&#1074;</text></g><g class="entity" data-entity="uc1" data-source-line="11" data-uid="ent0011" id="entity_uc1"><ellipse cx="629.0844" cy="221.2989" fill="#F1F1F1" rx="195.5444" ry="41.5089" style="stroke:#181818;stroke-width:0.5;"/><text fill="#000000" font-family="sans-serif" font-size="14" lengthAdjust="spacing" textLength="364.3691" x="446.8999" y="224.1456">&#1042;&#1085;&#1077;&#1089;&#1077;&#1085;&#1080;&#1077; &#1076;&#1072;&#1085;&#1085;&#1099;&#1093; &#1086; &#1088;&#1077;&#1084;&#1086;&#1085;&#1090;&#1085;&#1099;&#1093; &#1079;&#1086;&#1085;&#1072;&#1093; &#1080; &#1073;&#1088;&#1080;&#1075;&#1072;&#1076;&#1072;&#1093;</text></g><g class="entity" data-entity="uc2" data-source-line="12" data-uid="ent0012" id="entity_uc2"><ellipse cx="299.076" cy="221.2992" fill="#F1F1F1" rx="99.246" ry="22.2492" style="stroke:#181818;stroke-width:0.5;"/><text fill="#000000" font-family="sans-serif" font-size="14" lengthAdjust="spacing" textLength="162.3945" x="217.8787" y="224.1459">&#1056;&#1077;&#1075;&#1080;&#1089;&#1090;&#1088;&#1072;&#1094;&#1080;&#1103; &#1076;&#1077;&#1092;&#1077;&#1082;&#1090;&#1072;</text></g><g class="entity" data-entity="uc3" data-source-line="13" data-uid="ent0013" id="entity_uc3"><ellipse cx="828.0806" cy="377.6241" fill="#F1F1F1" rx="177.0206" ry="37.8041" style="stroke:#181818;stroke-width:0.5;"/><text fill="#000000" font-family="sans-serif" font-size="14" lengthAdjust="spacing" textLength="326.3682" x="664.8965" y="380.4708">&#1060;&#1080;&#1082;&#1089;&#1072;&#1094;&#1080;&#1103; &#1074;&#1088;&#1077;&#1084;&#1077;&#1085;&#1080; &#1085;&#1072;&#1095;&#1072;&#1083;&#1072; &#1080; &#1082;&#1086;&#1085;&#1094;&#1072; &#1088;&#1077;&#1084;&#1086;&#1085;&#1090;&#1072;</text></g><g class="entity" data-entity="uc4" data-source-line="14" data-uid="ent0014" id="entity_uc4"><ellipse cx="1280.0815" cy="221.3003" fill="#F1F1F1" rx="130.6015" ry="28.5203" style="stroke:#181818;stroke-width:0.5;"/><text fill="#000000" font-family="sans-serif" font-size="14" lengthAdjust="spacing" textLength="229.8447" x="1165.1591" y="224.147">&#1053;&#1072;&#1079;&#1085;&#1072;&#1095;&#1077;&#1085;&#1080;&#1077; &#1088;&#1077;&#1084;&#1086;&#1085;&#1090;&#1072; &#1088;&#1072;&#1073;&#1086;&#1095;&#1077;&#1084;&#1091;</text></g><g class="entity" data-entity="uc5" data-source-line="15" data-uid="ent0015" id="entity_uc5"><ellipse cx="1918.0755" cy="221.2971" fill="#F1F1F1" rx="137.0355" ry="29.8071" style="stroke:#181818;stroke-width:0.5;"/><text fill="#000000" font-family="sans-serif" font-size="14" lengthAdjust="spacing" textLength="243.3867" x="1796.3822" y="224.1438">&#1056;&#1077;&#1075;&#1080;&#1089;&#1090;&#1088;&#1072;&#1094;&#1080;&#1103; &#1088;&#1072;&#1073;&#1086;&#1095;&#1077;&#1075;&#1086; &#1074; &#1089;&#1080;&#1089;&#1090;&#1077;&#1084;&#1077;</text></g><g class="entity" data-entity="uc6" data-source-line="16" data-uid="ent0016" id="entity_uc6"><ellipse cx="2244.0759" cy="221.3032" fill="#F1F1F1" rx="153.9659" ry="33.1932" style="stroke:#181818;stroke-width:0.5;"/><text fill="#000000" font-family="sans-serif" font-size="14" lengthAdjust="spacing" textLength="278.7285" x="2104.7116" y="224.1499">&#1053;&#1072;&#1079;&#1085;&#1072;&#1095;&#1077;&#1085;&#1080;&#1077; &#1072;&#1074;&#1090;&#1086;&#1084;&#1086;&#1073;&#1080;&#1083;&#1103; &#1076;&#1083;&#1103; &#1088;&#1077;&#1084;&#1086;&#1085;&#1090;&#1072;</text></g><g class="entity" data-entity="uc7" data-source-line="17" data-uid="ent0017" id="entity_uc7"><ellipse cx="987.0754" cy="221.2951" fill="#F1F1F1" rx="127.4254" ry="27.8851" style="stroke:#181818;stroke-width:0.5;"/><text fill="#000000" font-family="sans-serif" font-size="14" lengthAdjust="spacing" textLength="223.1318" x="875.5094" y="224.1418">&#1055;&#1086;&#1083;&#1091;&#1095;&#1077;&#1085;&#1080;&#1077; &#1086;&#1090;&#1095;&#1077;&#1090;&#1072; &#1086; &#1088;&#1077;&#1084;&#1086;&#1085;&#1090;&#1072;&#1093;</text></g><g class="entity" data-entity="uc8" data-source-line="18" data-uid="ent0018" id="entity_uc8"><ellipse cx="1596.0814" cy="221.3043" fill="#F1F1F1" rx="150.4214" ry="32.4843" style="stroke:#181818;stroke-width:0.5;"/><text fill="#000000" font-family="sans-serif" font-size="14" lengthAdjust="spacing" textLength="271.3594" x="1460.4017" y="224.151">&#1056;&#1077;&#1075;&#1080;&#1089;&#1090;&#1088;&#1072;&#1094;&#1080;&#1103; &#1089;&#1090;&#1072;&#1090;&#1080;&#1089;&#1090;&#1080;&#1082;&#1080; &#1087;&#1086; &#1088;&#1077;&#1084;&#1086;&#1085;&#1090;&#1091;</text></g><!--entity dispatcher--><g class="entity" data-entity="dispatcher" data-source-line="1" data-uid="ent0002" id="entity_dispatcher"><ellipse cx="2244.0834" cy="14" fill="#F1F1F1" rx="8" ry="8" style="stroke:#181818;stroke-width:0.5;"/><path d="M2244.0834,22 L2244.0834,49 M2231.0834,30 L2257.0834,30 M2244.0834,49 L2231.0834,64 M2244.0834,49 L2257.0834,64 " fill="none" style="stroke:#181818;stroke-width:0.5;"/><text fill="#000000" font-family="sans-serif" font-size="14" lengthAdjust="spacing" textLength="79.4268" x="2204.37" y="78.4951">&#1044;&#1080;&#1089;&#1087;&#1077;&#1090;&#1095;&#1077;&#1088;</text></g><!--entity planner--><g class="entity" data-entity="planner" data-source-line="2" data-uid="ent0003" id="entity_planner"><ellipse cx="629.0874" cy="14" fill="#F1F1F1" rx="8" ry="8" style="stroke:#181818;stroke-width:0.5;"/><path d="M629.0874,22 L629.0874,49 M616.0874,30 L642.0874,30 M629.0874,49 L616.0874,64 M629.0874,49 L642.0874,64 " fill="none" style="stroke:#181818;stroke-width:0.5;"/><text fill="#000000" font-family="sans-serif" font-size="14" lengthAdjust="spacing" textLength="156.7549" x="550.71" y="78.4951">&#1054;&#1090;&#1076;&#1077;&#1083; &#1087;&#1083;&#1072;&#1085;&#1080;&#1088;&#1086;&#1074;&#1072;&#1085;&#1080;&#1103;</text></g><!--entity quality_control--><g class="entity" data-entity="quality_control" data-source-line="3" data-uid="ent0004" id="entity_quality_control"><ellipse cx="824.0802" cy="14" fill="#F1F1F1" rx="8" ry="8" style="stroke:#181818;stroke-width:0.5;"/><path d="M824.0802,22 L824.0802,49 M811.0802,30 L837.0802,30 M824.0802,49 L811.0802,64 M824.0802,49 L837.0802,64 " fill="none" style="stroke:#181818;stroke-width:0.5;"/><text fill="#000000" font-family="sans-serif" font-size="14" lengthAdjust="spacing" textLength="161.8203" x="743.17" y="78.4951">&#1050;&#1086;&#1085;&#1090;&#1088;&#1086;&#1083;&#1077;&#1088;&#1099; &#1082;&#1072;&#1095;&#1077;&#1089;&#1090;&#1074;&#1072;</text></g><!--entity shop_manager--><g class="entity" data-entity="shop_manager" data-source-line="4" data-uid="ent0005" id="entity_shop_manager"><ellipse cx="1137.0806" cy="14" fill="#F1F1F1" rx="8" ry="8" style="stroke:#181818;stroke-width:0.5;"/><path d="M1137.0806,22 L1137.0806,49 M1124.0806,30 L1150.0806,30 M1137.0806,49 L1124.0806,64 M1137.0806,49 L1150.0806,64 " fill="none" style="stroke:#181818;stroke-width:0.5;"/><text fill="#000000" font-family="sans-serif" font-size="14" lengthAdjust="spacing" textLength="119.3213" x="1077.42" y="78.4951">&#1053;&#1072;&#1095;&#1072;&#1083;&#1100;&#1085;&#1080;&#1082; &#1094;&#1077;&#1093;&#1072;</text></g><!--entity foreman--><g class="entity" data-entity="foreman" data-source-line="5" data-uid="ent0006" id="entity_foreman"><ellipse cx="1424.0847" cy="14" fill="#F1F1F1" rx="8" ry="8" style="stroke:#181818;stroke-width:0.5;"/><path d="M1424.0847,22 L1424.0847,49 M1411.0847,30 L1437.0847,30 M1424.0847,49 L1411.0847,64 M1424.0847,49 L1437.0847,64 " fill="none" style="stroke:#181818;stroke-width:0.5;"/><text fill="#000000" font-family="sans-serif" font-size="14" lengthAdjust="spacing" textLength="71.1895" x="1388.49" y="78.4951">&#1041;&#1088;&#1080;&#1075;&#1072;&#1076;&#1080;&#1088;</text></g><!--entity mechanic--><g class="entity" data-entity="mechanic" data-source-line="6" data-uid="ent0007" id="entity_mechanic"><ellipse cx="100.0796" cy="14" fill="#F1F1F1" rx="8" ry="8" style="stroke:#181818;stroke-width:0.5;"/><path d="M100.0796,22 L100.0796,49 M87.0796,30 L113.0796,30 M100.0796,49 L87.0796,64 M100.0796,49 L113.0796,64 " fill="none" style="stroke:#181818;stroke-width:0.5;"/><text fill="#000000" font-family="sans-serif" font-size="14" lengthAdjust="spacing" textLength="80.1992" x="59.98" y="78.4951">&#1056;&#1077;&#1084;&#1086;&#1085;&#1090;&#1085;&#1080;&#1082;</text></g><!--entity worker--><g class="entity" data-entity="worker" data-source-line="7" data-uid="ent0008" id="entity_worker"><ellipse cx="1918.0847" cy="14" fill="#F1F1F1" rx="8" ry="8" style="stroke:#181818;stroke-width:0.5;"/><path d="M1918.0847,22 L1918.0847,49 M1905.0847,30 L1931.0847,30 M1918.0847,49 L1905.0847,64 M1918.0847,49 L1931.0847,64 " fill="none" style="stroke:#181818;stroke-width:0.5;"/><text fill="#000000" font-family="sans-serif" font-size="14" lengthAdjust="spacing" textLength="60.6895" x="1887.74" y="78.4951">&#1056;&#1072;&#1073;&#1086;&#1095;&#1080;&#1081;</text></g><!--entity accountant--><g class="entity" data-entity="accountant" data-source-line="8" data-uid="ent0009" id="entity_accountant"><ellipse cx="987.0867" cy="14" fill="#F1F1F1" rx="8" ry="8" style="stroke:#181818;stroke-width:0.5;"/><path d="M987.0867,22 L987.0867,49 M974.0867,30 L1000.0867,30 M987.0867,49 L974.0867,64 M987.0867,49 L1000.0867,64 " fill="none" style="stroke:#181818;stroke-width:0.5;"/><text fill="#000000" font-family="sans-serif" font-size="14" lengthAdjust="spacing" textLength="94.2334" x="939.97" y="78.4951">&#1041;&#1091;&#1093;&#1075;&#1072;&#1083;&#1090;&#1077;&#1088;&#1080;&#1103;</text></g><!--link dispatcher to uc6--><g class="link" data-entity-1="dispatcher" data-entity-2="uc6" data-source-line="21" data-uid="lnk19" id="link_dispatcher_uc6"><path d="M2244.08,81.9 C2244.08,113.32 2244.08,151.84 2244.08,181.83 " fill="none" id="dispatcher-to-uc6" style="stroke:#181818;stroke-width:1;"/><polygon fill="#181818" points="2244.08,187.83,2248.08,178.83,2244.08,182.83,2240.08,178.83,2244.08,187.83" style="stroke:#181818;stroke-width:1;"/><text fill="#000000" font-family="sans-serif" font-size="13" lengthAdjust="spacing" textLength="126.6992" x="2245.08" y="124.8569">&#1053;&#1072;&#1079;&#1085;&#1072;&#1095;&#1080;&#1090;&#1100; &#1088;&#1077;&#1084;&#1086;&#1085;&#1090;</text></g><!--link planner to uc1--><g class="link" data-entity-1="planner" data-entity-2="uc1" data-source-line="22" data-uid="lnk20" id="link_planner_uc1"><path d="M629.08,81.9 C629.08,110.5 629.08,143.95 629.08,173.42 " fill="none" id="planner-to-uc1" style="stroke:#181818;stroke-width:1;"/><polygon fill="#181818" points="629.08,179.42,633.08,170.42,629.08,174.42,625.08,170.42,629.08,179.42" style="stroke:#181818;stroke-width:1;"/><text fill="#000000" font-family="sans-serif" font-size="13" lengthAdjust="spacing" textLength="104.9331" x="630.08" y="124.8569">&#1042;&#1085;&#1077;&#1089;&#1090;&#1080; &#1076;&#1072;&#1085;&#1085;&#1099;&#1077;</text></g><!--link quality_control to uc7--><g class="link" data-entity-1="quality_control" data-entity-2="uc7" data-source-line="23" data-uid="lnk21" id="link_quality_control_uc7"><path d="M837.77,82.09 C844.53,97.54 853.7,115.01 865.08,128.79 C886.92,155.23 912.8452,175.0764 938.1152,191.4564 " fill="none" id="quality_control-to-uc7" style="stroke:#181818;stroke-width:1;"/><polygon fill="#181818" points="943.15,194.72,937.7735,186.4681,938.9543,192.0004,933.4221,193.1812,943.15,194.72" style="stroke:#181818;stroke-width:1;"/><text fill="#000000" font-family="sans-serif" font-size="13" lengthAdjust="spacing" textLength="108.0054" x="866.08" y="124.8569">&#1055;&#1086;&#1083;&#1091;&#1095;&#1080;&#1090;&#1100; &#1086;&#1090;&#1095;&#1077;&#1090;</text></g><!--link shop_manager to uc7--><g class="link" data-entity-1="shop_manager" data-entity-2="uc7" data-source-line="24" data-uid="lnk22" id="link_shop_manager_uc7"><path d="M1123.89,82.28 C1117.47,97.59 1108.81,114.9 1098.08,128.79 C1078.16,154.59 1054.5701,174.3554 1031.4601,190.9854 " fill="none" id="shop_manager-to-uc7" style="stroke:#181818;stroke-width:1;"/><polygon fill="#181818" points="1026.59,194.49,1036.2316,192.4799,1030.6484,191.5695,1031.5588,185.9864,1026.59,194.49" style="stroke:#181818;stroke-width:1;"/><text fill="#000000" font-family="sans-serif" font-size="13" lengthAdjust="spacing" textLength="108.0054" x="1110.08" y="124.8569">&#1055;&#1086;&#1083;&#1091;&#1095;&#1080;&#1090;&#1100; &#1086;&#1090;&#1095;&#1077;&#1090;</text></g><!--link foreman to uc4--><g class="link" data-entity-1="foreman" data-entity-2="uc4" data-source-line="25" data-uid="lnk23" id="link_foreman_uc4"><path d="M1387.99,77.21 C1376.97,87.82 1365.12,99.92 1355.08,111.79 C1333.05,137.85 1314.4784,165.2662 1300.1084,187.8762 " fill="none" id="foreman-to-uc4" style="stroke:#181818;stroke-width:1;"/><polygon fill="#181818" points="1296.89,192.94,1305.0934,187.4899,1299.572,188.7202,1298.3417,183.1987,1296.89,192.94" style="stroke:#181818;stroke-width:1;"/><text fill="#000000" font-family="sans-serif" font-size="13" lengthAdjust="spacing" textLength="126.6992" x="1356.08" y="124.8569">&#1053;&#1072;&#1079;&#1085;&#1072;&#1095;&#1080;&#1090;&#1100; &#1088;&#1077;&#1084;&#1086;&#1085;&#1090;</text></g><!--link foreman to uc8--><g class="link" data-entity-1="foreman" data-entity-2="uc8" data-source-line="26" data-uid="lnk24" id="link_foreman_uc8"><path d="M1460.14,81.47 C1491.37,113.36 1531.8424,154.6928 1561.3424,184.8228 " fill="none" id="foreman-to-uc8" style="stroke:#181818;stroke-width:1;"/><polygon fill="#181818" points="1565.54,189.11,1562.1018,179.8808,1562.042,185.5373,1556.3855,185.4775,1565.54,189.11" style="stroke:#181818;stroke-width:1;"/><text fill="#000000" font-family="sans-serif" font-size="13" lengthAdjust="spacing" textLength="108.0054" x="1505.08" y="124.8569">&#1055;&#1086;&#1083;&#1091;&#1095;&#1080;&#1090;&#1100; &#1086;&#1090;&#1095;&#1077;&#1090;</text></g><!--link mechanic to uc2--><g class="link" data-entity-1="mechanic" data-entity-2="uc2" data-source-line="27" data-uid="lnk25" id="link_mechanic_uc2"><path d="M140.35,80.19 C180.9,115.98 237.5711,166.0102 270.9011,195.4202 " fill="none" id="mechanic-to-uc2" style="stroke:#181818;stroke-width:1;"/><polygon fill="#181818" points="275.4,199.39,271.2981,190.436,271.6509,196.0818,266.005,196.4346,275.4,199.39" style="stroke:#181818;stroke-width:1;"/><text fill="#000000" font-family="sans-serif" font-size="13" lengthAdjust="spacing" textLength="150.7949" x="194.08" y="124.8569">&#1056;&#1077;&#1075;&#1080;&#1089;&#1090;&#1088;&#1072;&#1094;&#1080;&#1103; &#1076;&#1077;&#1092;&#1077;&#1082;&#1090;&#1072;</text></g><!--link mechanic to uc3--><g class="link" data-entity-1="mechanic" data-entity-2="uc3" data-source-line="28" data-uid="lnk26" id="link_mechanic_uc3"><path d="M74.12,82.12 C44.63,129.73 6,211.81 50.08,262.81 C126.13,350.79 439.5514,371.9416 644.7214,376.3316 " fill="none" id="mechanic-to-uc3" style="stroke:#181818;stroke-width:1;"/><polygon fill="#181818" points="650.72,376.46,641.8076,372.2684,645.7211,376.353,641.6365,380.2666,650.72,376.46" style="stroke:#181818;stroke-width:1;"/><text fill="#000000" font-family="sans-serif" font-size="13" lengthAdjust="spacing" textLength="130.5205" x="51.08" y="225.8669">&#1060;&#1080;&#1082;&#1089;&#1072;&#1094;&#1080;&#1103; &#1074;&#1088;&#1077;&#1084;&#1077;&#1085;&#1080;</text></g><!--link worker to uc5--><g class="link" data-entity-1="worker" data-entity-2="uc5" data-source-line="29" data-uid="lnk27" id="link_worker_uc5"><path d="M1918.08,81.9 C1918.08,114.53 1918.08,155.28 1918.08,185.22 " fill="none" id="worker-to-uc5" style="stroke:#181818;stroke-width:1;"/><polygon fill="#181818" points="1918.08,191.22,1922.08,182.22,1918.08,186.22,1914.08,182.22,1918.08,191.22" style="stroke:#181818;stroke-width:1;"/><text fill="#000000" font-family="sans-serif" font-size="13" lengthAdjust="spacing" textLength="153.9561" x="1919.08" y="124.8569">&#1056;&#1077;&#1075;&#1080;&#1089;&#1090;&#1088;&#1072;&#1094;&#1080;&#1103; &#1088;&#1072;&#1073;&#1086;&#1095;&#1077;&#1075;&#1086;</text></g><!--link accountant to uc7--><g class="link" data-entity-1="accountant" data-entity-2="uc7" data-source-line="30" data-uid="lnk28" id="link_accountant_uc7"><path d="M985.11,82.28 C984.68,91.9 984.3,102.23 984.08,111.79 C983.47,139.49 984.2686,165.1666 985.2986,187.1066 " fill="none" id="accountant-to-uc7" style="stroke:#181818;stroke-width:1;"/><polygon fill="#181818" points="985.58,193.1,989.1535,183.9223,985.3455,188.1055,981.1623,184.2975,985.58,193.1" style="stroke:#181818;stroke-width:1;"/><text fill="#000000" font-family="sans-serif" font-size="13" lengthAdjust="spacing" textLength="108.0054" x="985.08" y="124.8569">&#1055;&#1086;&#1083;&#1091;&#1095;&#1080;&#1090;&#1100; &#1086;&#1090;&#1095;&#1077;&#1090;</text></g><!--link uc4 to uc3--><g class="link" data-entity-1="uc4" data-entity-2="uc3" data-source-line="31" data-uid="lnk29" id="link_uc4_uc3"><path d="M1210.94,245.91 C1133.29,272.42 1012.558,313.631 926.408,343.051 " fill="none" id="uc4-to-uc3" style="stroke:#181818;stroke-width:1;stroke-dasharray:7.0,7.0;"/><polygon fill="#181818" points="920.73,344.99,930.5398,345.8668,925.4617,343.3741,927.9544,338.2961,920.73,344.99" style="stroke:#181818;stroke-width:1;"/><text fill="#000000" font-family="sans-serif" font-size="13" lengthAdjust="spacing" textLength="67.2407" x="1068.08" y="305.8769">&#1042;&#1082;&#1083;&#1102;&#1095;&#1072;&#1077;&#1090;</text></g><!--SRC=[ZLJRQjj047tVhrZqda1kJUX3VoKiYXgREf8hoOGG2h7If0y9BGrzAlG6_G3PZebgrSulpFvHpwpMkXKIlOZLSixCcJCpgzmu2AL3NoZJOtgakKxq1tml7AaYUTIFXYfsUrueb0L-rmdTqvno2NHEAIt1lA0LJUtvas4E1yhtQxIlG2mHcv4vnzStaXQKccHZn0JT4D-ErA0VdnswWH-7mQ0CyCrWKyhrBQUXXTJNe5vPMjGBXeSdobV7jQIVaIwZ6LZtBD80NmUX1ro9-ObQ_XRYYhW6TUAvFUNttHeifGcj826ZFmPo6eHl6hak8MPc52PSO6c5SjrWvCVAZuK8FHU7uu47nY-sdB78dqhGsOe4H_PNlyVz0hymrf7dGifHvBagOk8TXC8q05ZmdF5i_LBVw2j9AudSjPgAsmV-XOKuPf8cDMDmPsIEtAr65ZPcLaW4EeNRAAYfBRN4xGRnDxi8UILbQWKPlTB8C9taKZEU0bPwpHxKXQ-3xpI2OmnGIn5YNN-Jnh_hNk5QNzeuknsgQr1di9Ac4fLKVPhRO7lFYiBLrBIFXKrmbHVkvKMQ_-jyqGZvW_Uac8brm9LTJJCYhIvNJTplKkROK19R6Dh5VNXi1IsTEn3lXAYU0hcnyOhrofUjqZDmRXiX767V0SlPCXmxlvovDhlmLhIMtxBs3QjofCXJ-U68-lPt9jcNmE9tEvNJv1mycsFzZbZ2jY5qsgmsTSTGdzujHnIFagNiFP6jFUcEg9wfpWwoQvj7mQc_MIcymp3b-gFPS0Rz0m00]--></g></svg>