<svg width="250pt" height="134pt" viewBox="0.00 0.00 249.77 133.80" xmlns="http://www.w3.org/2000/svg" xmlns:xlink="http://www.w3.org/1999/xlink">
<g id="graph0" class="graph" transform="scale(1 1) rotate(0) translate(4 129.8)">
<title>TimeDiagram</title>
<polygon fill="white" stroke="none" points="-4,4 -4,-129.8 245.77,-129.8 245.77,4 -4,4"/>
<!-- Time -->
<g id="node1" class="node">
<title>Time</title>
<text text-anchor="middle" x="30.16" y="-13.8" font-family="Times,serif" font-size="14.00">Time</text>
</g>
<!-- Heating -->
<g id="node2" class="node">
<title>Heating</title>
<text text-anchor="middle" x="30.16" y="-79.2" font-family="Times,serif" font-size="14.00">Heating</text>
<text text-anchor="middle" x="30.16" y="-62.4" font-family="Times,serif" font-size="14.00">Start</text>
</g>
<!-- Pause -->
<g id="node3" class="node">
<title>Pause</title>
<text text-anchor="middle" x="211.61" y="-109.2" font-family="Times,serif" font-size="14.00">Pause</text>
<text text-anchor="middle" x="211.61" y="-92.4" font-family="Times,serif" font-size="14.00">Heating</text>
</g>
<!-- Heating&#45;&gt;Pause -->
<g id="edge1" class="edge">
<title>Heating-&gt;Pause</title>
<path fill="none" stroke="black" d="M60.2,-87.51C66.11,-89.64 72.34,-91.62 78.32,-93 108.61,-100.02 143.7,-102.97 170.12,-104.19"/>
<polygon fill="black" stroke="black" points="169.96,-107.69 180.09,-104.58 170.24,-100.7 169.96,-107.69"/>
<text text-anchor="middle" x="120.88" y="-108.03" font-family="Times,serif" font-size="14.00">after 1 minute</text>
</g>
<!-- Stop -->
<g id="node4" class="node">
<title>Stop</title>
<text text-anchor="middle" x="211.61" y="-39.2" font-family="Times,serif" font-size="14.00">Stop</text>
<text text-anchor="middle" x="211.61" y="-22.4" font-family="Times,serif" font-size="14.00">Heating</text>
</g>
<!-- Heating&#45;&gt;Stop -->
<g id="edge3" class="edge">
<title>Heating-&gt;Stop</title>
<path fill="none" stroke="black" d="M57.87,-54.24C64.25,-50.24 71.27,-46.57 78.32,-44.2 108.07,-34.21 143.65,-32.25 170.42,-32.6"/>
<polygon fill="black" stroke="black" points="170.07,-36.09 180.16,-32.85 170.25,-29.1 170.07,-36.09"/>
<text text-anchor="middle" x="120.88" y="-48.4" font-family="Times,serif" font-size="14.00">finish heating</text>
</g>
<!-- Pause&#45;&gt;Heating -->
<g id="edge2" class="edge">
<title>Pause-&gt;Heating</title>
<path fill="none" stroke="black" d="M186.67,-84.21C179.64,-79.31 171.64,-74.77 163.45,-72.2 133.66,-62.86 98.22,-64.22 71.53,-67.56"/>
<polygon fill="black" stroke="black" points="71.21,-64.07 61.79,-68.93 72.18,-71 71.21,-64.07"/>
<text text-anchor="middle" x="120.88" y="-76.4" font-family="Times,serif" font-size="14.00">resume heating</text>
</g>
</g>
</svg>