<svg width="735pt" height="310pt" viewBox="0.00 0.00 735.15 310.40" xmlns="http://www.w3.org/2000/svg" xmlns:xlink="http://www.w3.org/1999/xlink">
<g id="graph0" class="graph" transform="scale(1 1) rotate(0) translate(4 306.4)">
<title>ComponentDiagram</title>
<polygon fill="white" stroke="none" points="-4,4 -4,-306.4 731.15,-306.4 731.15,4 -4,4"/>
<!-- DispatcherModule -->
<g id="node1" class="node">
<title>DispatcherModule</title>
<polygon fill="none" stroke="black" points="231.62,-302.4 98.9,-302.4 98.9,-266.4 231.62,-266.4 231.62,-302.4"/>
<text text-anchor="middle" x="165.26" y="-280.2" font-family="Arial" font-size="14.00">Dispatcher Module</text>
</g>
<!-- RepairManagementModule -->
<g id="node2" class="node">
<title>RepairManagementModule</title>
<polygon fill="none" stroke="black" points="261.59,-213.6 68.93,-213.6 68.93,-177.6 261.59,-177.6 261.59,-213.6"/>
<text text-anchor="middle" x="165.26" y="-191.4" font-family="Arial" font-size="14.00">Repair Management Module</text>
</g>
<!-- DispatcherModule&#45;&gt;RepairManagementModule -->
<g id="edge1" class="edge">
<title>DispatcherModule-&gt;RepairManagementModule</title>
<path fill="none" stroke="black" d="M165.26,-266.25C165.26,-254.56 165.26,-238.79 165.26,-225.22"/>
<polygon fill="black" stroke="black" points="168.76,-225.52 165.26,-215.52 161.76,-225.52 168.76,-225.52"/>
<text text-anchor="middle" x="231.35" y="-235.8" font-family="Times,serif" font-size="14.00">coordinates repair tasks</text>
</g>
<!-- WorkerManagementModule -->
<g id="node3" class="node">
<title>WorkerManagementModule</title>
<polygon fill="none" stroke="black" points="196.52,-124.8 0,-124.8 0,-88.8 196.52,-88.8 196.52,-124.8"/>
<text text-anchor="middle" x="98.26" y="-102.6" font-family="Arial" font-size="14.00">Worker Management Module</text>
</g>
<!-- RepairManagementModule&#45;&gt;WorkerManagementModule -->
<g id="edge2" class="edge">
<title>RepairManagementModule-&gt;WorkerManagementModule</title>
<path fill="none" stroke="black" d="M109.62,-177.13C102.37,-172.55 95.88,-166.8 91.33,-159.6 86.91,-152.62 86.51,-144.05 87.83,-135.9"/>
<polygon fill="black" stroke="black" points="91.19,-136.9 90.24,-126.35 84.4,-135.19 91.19,-136.9"/>
<text text-anchor="middle" x="158.79" y="-147" font-family="Times,serif" font-size="14.00">assigns tasks to workers</text>
</g>
<!-- DatabaseModule -->
<g id="node6" class="node">
<title>DatabaseModule</title>
<polygon fill="none" stroke="black" points="399.13,-36 273.39,-36 273.39,0 399.13,0 399.13,-36"/>
<text text-anchor="middle" x="336.26" y="-13.8" font-family="Arial" font-size="14.00">Database Module</text>
</g>
<!-- RepairManagementModule&#45;&gt;DatabaseModule -->
<g id="edge3" class="edge">
<title>RepairManagementModule-&gt;DatabaseModule</title>
<path fill="none" stroke="black" d="M205.57,-177.1C213.25,-172.32 220.63,-166.51 226.26,-159.6 247.21,-133.93 230.77,-116.04 249.64,-88.8 262.26,-70.58 280.97,-54.67 297.77,-42.66"/>
<polygon fill="black" stroke="black" points="299.37,-45.81 305.62,-37.26 295.4,-40.05 299.37,-45.81"/>
<text text-anchor="middle" x="297.45" y="-102.6" font-family="Times,serif" font-size="14.00">stores repair data</text>
</g>
<!-- WorkerManagementModule&#45;&gt;DatabaseModule -->
<g id="edge4" class="edge">
<title>WorkerManagementModule-&gt;DatabaseModule</title>
<path fill="none" stroke="black" d="M102.24,-88.68C105.85,-77.07 112.38,-62.36 123.63,-54 145.17,-37.99 209.35,-28.93 261.62,-24.06"/>
<polygon fill="black" stroke="black" points="261.75,-27.56 271.4,-23.19 261.13,-20.59 261.75,-27.56"/>
<text text-anchor="middle" x="174.95" y="-58.2" font-family="Times,serif" font-size="14.00">stores worker data</text>
</g>
<!-- QualityControlModule -->
<g id="node4" class="node">
<title>QualityControlModule</title>
<polygon fill="none" stroke="black" points="512.46,-124.8 354.06,-124.8 354.06,-88.8 512.46,-88.8 512.46,-124.8"/>
<text text-anchor="middle" x="433.26" y="-102.6" font-family="Arial" font-size="14.00">Quality Control Module</text>
</g>
<!-- QualityControlModule&#45;&gt;DatabaseModule -->
<g id="edge5" class="edge">
<title>QualityControlModule-&gt;DatabaseModule</title>
<path fill="none" stroke="black" d="M414.1,-88.65C399.84,-75.89 380.17,-58.29 364.17,-43.97"/>
<polygon fill="black" stroke="black" points="366.63,-41.48 356.85,-37.42 361.96,-46.7 366.63,-41.48"/>
<text text-anchor="middle" x="465.96" y="-58.2" font-family="Times,serif" font-size="14.00">stores quality control data</text>
</g>
<!-- ReportGenerationModule -->
<g id="node5" class="node">
<title>ReportGenerationModule</title>
<polygon fill="none" stroke="black" points="711.75,-124.8 530.77,-124.8 530.77,-88.8 711.75,-88.8 711.75,-124.8"/>
<text text-anchor="middle" x="621.26" y="-102.6" font-family="Arial" font-size="14.00">Report Generation Module</text>
</g>
<!-- ReportGenerationModule&#45;&gt;DatabaseModule -->
<g id="edge6" class="edge">
<title>ReportGenerationModule-&gt;DatabaseModule</title>
<path fill="none" stroke="black" d="M600.14,-88.45C584.95,-76.89 563.48,-62.34 542.26,-54 500.38,-37.55 450.72,-28.82 410.65,-24.2"/>
<polygon fill="black" stroke="black" points="411.17,-20.73 400.85,-23.13 410.42,-27.69 411.17,-20.73"/>
<text text-anchor="middle" x="650.77" y="-58.2" font-family="Times,serif" font-size="14.00">generates reports from data</text>
</g>
</g>
</svg>